<svg width="22" height="29" viewBox="0 0 22 29" fill="none" xmlns="http://www.w3.org/2000/svg">
<path d="M21.096 10.548C21.096 16.3735 16.3735 21.096 10.548 21.096C4.72251 21.096 0 16.3735 0 10.548C0 4.72251 4.72251 0 10.548 0C16.3735 0 21.096 4.72251 21.096 10.548Z" fill="#D9626B"/>
<path fill-rule="evenodd" clip-rule="evenodd" d="M10.5473 18.1292C14.7344 18.1292 18.1287 14.7349 18.1287 10.5478C18.1287 6.36075 14.7344 2.96645 10.5473 2.96645C6.36026 2.96645 2.96596 6.36075 2.96596 10.5478C2.96596 14.7349 6.36026 18.1292 10.5473 18.1292ZM10.5473 19.4477C15.4626 19.4477 19.4472 15.4631 19.4472 10.5478C19.4472 5.63256 15.4626 1.64795 10.5473 1.64795C5.63208 1.64795 1.64746 5.63256 1.64746 10.5478C1.64746 15.4631 5.63208 19.4477 10.5473 19.4477Z" fill="white"/>
<path d="M2.93261 20.1119L0.253546 24.624C0.133064 24.8269 0.258612 25.087 0.492439 25.1189L3.48057 25.5263C3.57284 25.5389 3.65549 25.5899 3.70808 25.6668L5.47904 28.2551C5.6144 28.453 5.90895 28.4447 6.03307 28.2397L9.25593 22.915C9.38889 22.6953 9.23068 22.4102 8.97516 22.3847C6.83781 22.1711 4.55728 20.8645 3.43472 20.0185C3.27217 19.896 3.03653 19.9368 2.93261 20.1119Z" fill="#D9626B"/>
<path d="M18.1631 20.1119L20.8422 24.624C20.9626 24.8269 20.8371 25.087 20.6033 25.1189L17.6151 25.5263C17.5229 25.5389 17.4402 25.5899 17.3876 25.6668L15.6167 28.2551C15.4813 28.453 15.1868 28.4447 15.0626 28.2397L11.8398 22.915C11.7068 22.6953 11.865 22.4102 12.1205 22.3847C14.2579 22.1711 16.5384 20.8645 17.661 20.0185C17.8235 19.896 18.0592 19.9368 18.1631 20.1119Z" fill="#D9626B"/>
<path d="M9.49949 8.36442L8.04914 8.81403C7.90411 8.71734 7.75907 8.58198 7.61404 8.40794C7.469 8.23389 7.39648 7.99217 7.39648 7.68276C7.39648 7.10262 7.7494 6.69652 8.45524 6.46446L10.0796 5.91333H10.6163C11.032 5.91333 11.3608 6.03419 11.6025 6.27592C11.8442 6.51764 11.9651 6.84639 11.9651 7.26216V14.8185C11.8587 14.8378 11.6992 14.862 11.4865 14.891C11.2834 14.9297 11.0755 14.949 10.8628 14.949C10.6501 14.949 10.4567 14.9345 10.2827 14.9055C10.1183 14.8765 9.97811 14.8185 9.86208 14.7315C9.74605 14.6444 9.6542 14.5284 9.58652 14.3834C9.5285 14.2287 9.49949 14.0305 9.49949 13.7887V8.36442Z" fill="white"/>
</svg>
