<svg width="21" height="28" viewBox="0 0 21 28" fill="none" xmlns="http://www.w3.org/2000/svg">
<path d="M21 10.4C21 16.1438 16.299 20.8 10.5 20.8C4.70101 20.8 0 16.1438 0 10.4C0 4.65624 4.70101 0 10.5 0C16.299 0 21 4.65624 21 10.4Z" fill="#536173"/>
<path fill-rule="evenodd" clip-rule="evenodd" d="M10.5 17.875C14.668 17.875 18.0469 14.5283 18.0469 10.4C18.0469 6.27167 14.668 2.925 10.5 2.925C6.33198 2.925 2.95312 6.27167 2.95312 10.4C2.95312 14.5283 6.33198 17.875 10.5 17.875ZM10.5 19.175C15.3929 19.175 19.3594 15.2463 19.3594 10.4C19.3594 5.5537 15.3929 1.625 10.5 1.625C5.6071 1.625 1.64062 5.5537 1.64062 10.4C1.64062 15.2463 5.6071 19.175 10.5 19.175Z" fill="white"/>
<path d="M2.91953 19.8295L0.252663 24.2783C0.132729 24.4784 0.257706 24.7348 0.490468 24.7663L3.465 25.168C3.55685 25.1804 3.63912 25.2307 3.69147 25.3065L5.45437 27.8585C5.58911 28.0536 5.88233 28.0455 6.00588 27.8433L9.21407 22.5933C9.34643 22.3767 9.18893 22.0956 8.93458 22.0704C6.80696 21.8598 4.5368 20.5716 3.41936 19.7375C3.25754 19.6167 3.02298 19.657 2.91953 19.8295Z" fill="#536173"/>
<path d="M18.0805 19.8295L20.7473 24.2783C20.8673 24.4784 20.7423 24.7348 20.5095 24.7663L17.535 25.168C17.4431 25.1804 17.3609 25.2307 17.3085 25.3065L15.5456 27.8585C15.4109 28.0536 15.1177 28.0455 14.9941 27.8433L11.7859 22.5933C11.6536 22.3767 11.8111 22.0956 12.0654 22.0704C14.193 21.8598 16.4632 20.5716 17.5806 19.7375C17.7425 19.6167 17.977 19.657 18.0805 19.8295Z" fill="#536173"/>
<path d="M10.2544 5.71606C11.3613 5.71606 12.2035 5.94486 12.781 6.40246C13.3585 6.85053 13.6472 7.45589 13.6472 8.21856C13.6472 8.67616 13.5221 9.06703 13.2719 9.39116C13.0312 9.70576 12.7425 9.94409 12.4056 10.1062C12.6077 10.1824 12.7954 10.2778 12.9687 10.3922C13.1419 10.5066 13.2959 10.6496 13.4307 10.8212C13.5654 10.9928 13.6713 11.193 13.7483 11.4218C13.8253 11.6506 13.8638 11.9175 13.8638 12.2226C13.8638 12.6325 13.7724 12.9995 13.5895 13.3237C13.4162 13.6478 13.1708 13.9243 12.8532 14.1531C12.5356 14.3819 12.1554 14.5535 11.7126 14.6679C11.2795 14.7918 10.8031 14.8538 10.2833 14.8538C9.28231 14.8538 8.52675 14.7155 8.01662 14.4391C7.5065 14.1626 7.25143 13.8099 7.25143 13.3809C7.25143 13.1235 7.314 12.9042 7.43912 12.7231C7.56425 12.5324 7.71825 12.3846 7.90112 12.2798C8.09362 12.4132 8.34868 12.5562 8.66631 12.7088C8.99356 12.8518 9.41706 12.9233 9.93681 12.9233C10.4277 12.9233 10.7886 12.8375 11.0196 12.6659C11.2602 12.4943 11.3806 12.2702 11.3806 11.9938C11.3806 11.7173 11.2843 11.5076 11.0918 11.3646C10.9089 11.2216 10.5865 11.1501 10.1245 11.1501H8.76737C8.7 11.0452 8.64225 10.9165 8.59412 10.764C8.546 10.6114 8.52193 10.4303 8.52193 10.2206C8.52193 10.0013 8.54118 9.81539 8.57968 9.66286C8.62781 9.50079 8.69037 9.36733 8.76737 9.26246H10.1245C10.8175 9.26246 11.164 9.00029 11.164 8.47596C11.164 8.2281 11.0533 8.02789 10.8319 7.87536C10.6106 7.72283 10.2785 7.64656 9.83575 7.64656C9.44112 7.64656 9.09462 7.69423 8.79625 7.78956C8.49787 7.87536 8.25243 7.98499 8.05993 8.11846C7.89631 8.00406 7.76156 7.86583 7.65568 7.70376C7.54981 7.53216 7.49687 7.33196 7.49687 7.10316C7.49687 6.62649 7.74712 6.27853 8.24762 6.05926C8.74812 5.83046 9.41706 5.71606 10.2544 5.71606Z" fill="white"/>
</svg>
