<svg width="33" height="34" viewBox="0 0 33 34" fill="none" xmlns="http://www.w3.org/2000/svg">
<path d="M30.3037 17.9056C30.0345 17.5991 29.886 17.2051 29.886 16.7971C29.886 16.3892 30.0345 15.9952 30.3037 15.6887L32.4535 13.2702C32.6904 13.006 32.8375 12.6735 32.8737 12.3205C32.9099 11.9675 32.8333 11.612 32.655 11.3052L29.296 5.4942C29.1195 5.18773 28.8508 4.94481 28.5281 4.80005C28.2054 4.65529 27.8453 4.6161 27.499 4.68805L24.3416 5.32626C23.9398 5.40927 23.5215 5.34236 23.1657 5.13815C22.8099 4.93395 22.5411 4.60657 22.4101 4.2178L21.3857 1.14433C21.273 0.810754 21.0583 0.521019 20.772 0.316083C20.4857 0.111147 20.1422 0.00137516 19.7901 0.00228403H13.0722C12.706 -0.0168319 12.3435 0.0844552 12.0403 0.290675C11.737 0.496896 11.5096 0.796713 11.3927 1.14433L10.4522 4.2178C10.3212 4.60657 10.0524 4.93395 9.69662 5.13815C9.34081 5.34236 8.92255 5.40927 8.52079 5.32626L5.27938 4.68805C4.95113 4.64167 4.61649 4.69346 4.31762 4.83692C4.01875 4.98038 3.76902 5.20908 3.5999 5.4942L0.240924 11.3052C0.0581287 11.6086 -0.0240619 11.9621 0.00610249 12.315C0.0362669 12.6679 0.177242 13.0022 0.408872 13.2702L2.54182 15.6887C2.81107 15.9952 2.95957 16.3892 2.95957 16.7971C2.95957 17.2051 2.81107 17.5991 2.54182 17.9056L0.408872 20.3241C0.177242 20.592 0.0362669 20.9264 0.00610249 21.2793C-0.0240619 21.6322 0.0581287 21.9857 0.240924 22.2891L3.5999 28.1001C3.77641 28.4066 4.04516 28.6495 4.36785 28.7942C4.69053 28.939 5.05068 28.9782 5.39695 28.9062L8.55438 28.268C8.95614 28.185 9.3744 28.2519 9.73021 28.4561C10.086 28.6604 10.3548 28.9877 10.4858 29.3765L11.5103 32.45C11.6271 32.7976 11.8546 33.0974 12.1578 33.3036C12.4611 33.5098 12.8235 33.6111 13.1898 33.592H19.9077C20.2598 33.5929 20.6033 33.4832 20.8896 33.2782C21.1759 33.0733 21.3906 32.7835 21.5032 32.45L22.5277 29.3765C22.6587 28.9877 22.9275 28.6604 23.2833 28.4561C23.6391 28.2519 24.0574 28.185 24.4591 28.268L27.6166 28.9062C27.9628 28.9782 28.323 28.939 28.6457 28.7942C28.9683 28.6495 29.2371 28.4066 29.4136 28.1001L32.7726 22.2891C32.9509 21.9823 33.0274 21.6268 32.9912 21.2738C32.955 20.9208 32.8079 20.5883 32.571 20.3241L30.3037 17.9056ZM27.8013 20.1561L29.1449 21.6677L26.9951 25.3961L25.0134 24.993C23.8038 24.7458 22.5455 24.9513 21.4774 25.5705C20.4092 26.1896 19.6056 27.1795 19.2191 28.352L18.5809 30.233H14.2814L13.6768 28.3184C13.2903 27.1459 12.4867 26.1561 11.4186 25.5369C10.3505 24.9177 9.09219 24.7122 7.88259 24.9595L5.90079 25.3625L3.71746 21.6509L5.06105 20.1393C5.88728 19.2156 6.34406 18.0197 6.34406 16.7804C6.34406 15.541 5.88728 14.3451 5.06105 13.4214L3.71746 11.9098L5.8672 8.21497L7.849 8.61805C9.0586 8.86531 10.3169 8.65984 11.385 8.04064C12.4531 7.42144 13.2567 6.43163 13.6432 5.25908L14.2814 3.36126H18.5809L19.2191 5.27587C19.6056 6.44842 20.4092 7.43824 21.4774 8.05743C22.5455 8.67663 23.8038 8.8821 25.0134 8.63484L26.9951 8.23177L29.1449 11.9602L27.8013 13.4718C26.9843 14.3934 26.5332 15.5823 26.5332 16.8139C26.5332 18.0455 26.9843 19.2345 27.8013 20.1561V20.1561ZM16.4312 10.0792C15.1025 10.0792 13.8036 10.4732 12.6989 11.2114C11.5941 11.9496 10.7331 12.9988 10.2246 14.2263C9.71614 15.4538 9.5831 16.8046 9.84231 18.1078C10.1015 19.4109 10.7413 20.6079 11.6809 21.5475C12.6204 22.487 13.8174 23.1268 15.1206 23.386C16.4237 23.6452 17.7745 23.5122 19.002 23.0037C20.2296 22.4953 21.2788 21.6342 22.0169 20.5294C22.7551 19.4247 23.1491 18.1258 23.1491 16.7971C23.1491 15.0154 22.4413 13.3067 21.1815 12.0468C19.9216 10.787 18.2129 10.0792 16.4312 10.0792V10.0792ZM16.4312 20.1561C15.7668 20.1561 15.1174 19.9591 14.565 19.59C14.0126 19.2209 13.5821 18.6963 13.3279 18.0826C13.0737 17.4688 13.0071 16.7934 13.1367 16.1418C13.2664 15.4903 13.5863 14.8918 14.056 14.422C14.5258 13.9522 15.1243 13.6323 15.7759 13.5027C16.4274 13.3731 17.1028 13.4396 17.7166 13.6939C18.3304 13.9481 18.855 14.3786 19.2241 14.931C19.5931 15.4834 19.7901 16.1328 19.7901 16.7971C19.7901 17.688 19.4363 18.5424 18.8063 19.1723C18.1764 19.8022 17.322 20.1561 16.4312 20.1561Z" fill="#7A7A7A"/>
</svg>
