<svg width="42" height="56" viewBox="0 0 42 56" fill="none" xmlns="http://www.w3.org/2000/svg">
<path d="M37.7226 24.0216H34.0269V16.6303C34.0269 9.42385 28.2987 3.69563 21.0922 3.69563C13.8858 3.69563 8.15754 9.42385 8.15754 16.6303V24.0216H4.46191V16.6303C4.46191 7.39125 11.8532 0 21.0922 0C30.3313 0 37.7226 7.39125 37.7226 16.6303V24.0216Z" fill="#A6A6A6"/>
<path d="M35.8751 55.4345H6.31004C3.16876 55.4345 0.766602 53.0323 0.766602 49.891V27.7173C0.766602 24.576 3.16876 22.1738 6.31004 22.1738H35.8751C39.0163 22.1738 41.4185 24.576 41.4185 27.7173V49.891C41.4185 53.0323 39.0163 55.4345 35.8751 55.4345ZM6.31004 25.8695C5.20135 25.8695 4.46223 26.6086 4.46223 27.7173V49.891C4.46223 50.9997 5.20135 51.7388 6.31004 51.7388H35.8751C36.9837 51.7388 37.7229 50.9997 37.7229 49.891V27.7173C37.7229 26.6086 36.9837 25.8695 35.8751 25.8695H6.31004Z" fill="#A6A6A6"/>
<path d="M21.0926 36.9562C23.1336 36.9562 24.7882 35.3016 24.7882 33.2606C24.7882 31.2195 23.1336 29.5649 21.0926 29.5649C19.0516 29.5649 17.397 31.2195 17.397 33.2606C17.397 35.3016 19.0516 36.9562 21.0926 36.9562Z" fill="#A6A6A6"/>
<path d="M22.0164 33.2605H20.1686L18.3208 44.3474H23.8642L22.0164 33.2605Z" fill="#A6A6A6"/>
</svg>
