<svg width="22" height="29" viewBox="0 0 22 29" fill="none" xmlns="http://www.w3.org/2000/svg">
<path d="M21.096 10.548C21.096 16.3735 16.3735 21.096 10.548 21.096C4.72251 21.096 0 16.3735 0 10.548C0 4.72251 4.72251 0 10.548 0C16.3735 0 21.096 4.72251 21.096 10.548Z" fill="#BF4968"/>
<path fill-rule="evenodd" clip-rule="evenodd" d="M10.5473 18.1292C14.7344 18.1292 18.1287 14.7349 18.1287 10.5478C18.1287 6.36075 14.7344 2.96645 10.5473 2.96645C6.36026 2.96645 2.96596 6.36075 2.96596 10.5478C2.96596 14.7349 6.36026 18.1292 10.5473 18.1292ZM10.5473 19.4477C15.4626 19.4477 19.4472 15.4631 19.4472 10.5478C19.4472 5.63256 15.4626 1.64795 10.5473 1.64795C5.63208 1.64795 1.64746 5.63256 1.64746 10.5478C1.64746 15.4631 5.63208 19.4477 10.5473 19.4477Z" fill="white"/>
<path d="M2.93261 20.1119L0.253546 24.624C0.133064 24.8269 0.258612 25.087 0.492439 25.1189L3.48057 25.5263C3.57284 25.5389 3.65549 25.5899 3.70808 25.6668L5.47904 28.2551C5.6144 28.453 5.90895 28.4447 6.03307 28.2397L9.25593 22.915C9.38889 22.6953 9.23068 22.4102 8.97516 22.3847C6.83781 22.1711 4.55728 20.8645 3.43472 20.0185C3.27217 19.896 3.03653 19.9368 2.93261 20.1119Z" fill="#BF4968"/>
<path d="M18.1631 20.1119L20.8422 24.624C20.9626 24.8269 20.8371 25.087 20.6033 25.1189L17.6151 25.5263C17.5229 25.5389 17.4402 25.5899 17.3876 25.6668L15.6167 28.2551C15.4813 28.453 15.1868 28.4447 15.0626 28.2397L11.8398 22.915C11.7068 22.6953 11.865 22.4102 12.1205 22.3847C14.2579 22.1711 16.5384 20.8645 17.661 20.0185C17.8235 19.896 18.0592 19.9368 18.1631 20.1119Z" fill="#BF4968"/>
<path d="M10.4174 5.79712C10.9685 5.79712 11.4568 5.86964 11.8823 6.01467C12.3077 6.15004 12.6703 6.33858 12.97 6.58031C13.2698 6.82203 13.497 7.10727 13.6517 7.43602C13.8064 7.76476 13.8838 8.11768 13.8838 8.49477C13.8838 9.51002 13.3084 10.4769 12.1578 11.3955L10.2579 12.9183H13.7387C13.7967 13.0247 13.8499 13.1601 13.8983 13.3244C13.9563 13.4888 13.9853 13.6677 13.9853 13.8611C13.9853 14.2092 13.9079 14.4606 13.7532 14.6153C13.5985 14.7603 13.3955 14.8328 13.1441 14.8328H8.11135C7.89863 14.6878 7.72943 14.5041 7.60373 14.2817C7.4877 14.0496 7.42969 13.7789 7.42969 13.4695C7.42969 13.1407 7.49737 12.8652 7.63274 12.6428C7.7681 12.4107 7.91797 12.227 8.08235 12.0916L10.0838 10.3802C10.3352 10.1675 10.5431 9.97897 10.7075 9.81459C10.8719 9.64055 11.0024 9.48585 11.0991 9.35048C11.2054 9.21512 11.278 9.08942 11.3166 8.97339C11.365 8.85736 11.3891 8.74617 11.3891 8.63981C11.3891 8.36908 11.2683 8.15636 11.0266 8.00165C10.7945 7.84695 10.5044 7.7696 10.1563 7.7696C9.76959 7.7696 9.4215 7.83245 9.1121 7.95814C8.81236 8.07417 8.56096 8.19987 8.35791 8.33524C8.19354 8.21921 8.05817 8.07417 7.95181 7.90013C7.84546 7.72609 7.79228 7.52304 7.79228 7.29098C7.79228 6.78819 8.02917 6.41594 8.50295 6.17421C8.97673 5.92282 9.61488 5.79712 10.4174 5.79712Z" fill="white"/>
</svg>
